<svg width="867" height="880" viewBox="0 0 867 880" fill="none" xmlns="http://www.w3.org/2000/svg">
<path d="M439.6 0C197.2 0 0 197.2 0 439.6C0 682 197.3 879.2 439.8 879.2C630.2 877.9 766.1 754 829.7 638.3C842.8 614.5 883.5 533.8 858.3 493.3C838.6 461.7 795.2 473.8 745.1 487.8C683.3 505 606.6 526.4 556.8 482.2C530.4 458.8 522.8 428.1 515.5 398.5C507.8 367.4 499.1 332.3 465.3 316.5C407 289.4 320.4 339.7 193.3 474.9L225.6 505.2C373.9 347.6 429.4 348.8 446.6 356.7C460.6 363.2 465.3 380 472.5 409.1C480.6 442 490.7 482.9 527.4 515.4C595.3 575.6 688.8 549.5 757 530.5C778.5 524.5 805.4 517 817.6 517.5H821.5C821.5 517.6 821.9 521.5 821.9 521.5C823.9 538.9 812.7 586.3 773.7 645.4C736.3 702 629.1 833.7 439.6 834.9C221.6 834.9 44.2 657.6 44.2 439.6C44.2 221.6 221.6 44.3 439.6 44.3C657.6 44.3 656.1 90.9 730.8 172.3L763.8 142.7C680.7 52 562.8 0 439.6 0Z" fill="#EAC8AC"/>
</svg>
