<svg width="2018" height="492" viewBox="0 0 2018 492" fill="none" xmlns="http://www.w3.org/2000/svg">
<path d="M641 400.4H638.4C638 400.4 637.6 400.4 637.3 400.2C637 400.1 636.7 399.8 636.4 399.4L607.9 364.5C607.6 364.1 607.3 363.7 607 363.5C606.7 363.2 606.3 363 605.9 362.8C605.5 362.6 605 362.5 604.5 362.4C603.9 362.4 603.3 362.3 602.5 362.3H590.7V400.3H587.5V319.5H607C615.8 319.5 622.4 321.2 627 324.6C631.6 328 633.8 333.2 633.8 340.1C633.8 347 633.2 346.2 632 348.8C630.8 351.4 629.1 353.6 627 355.5C624.9 357.4 622.2 358.9 619.2 360C616.1 361.1 612.7 361.8 609 362C609.7 362.4 610.4 363 611 363.7L641.1 400.2L641 400.4ZM590.6 359.9H606C609.8 359.9 613.2 359.5 616.3 358.5C619.3 357.6 621.9 356.3 624.1 354.6C626.2 352.9 627.9 350.8 629 348.4C630.1 346 630.7 343.3 630.7 340.2C630.7 334 628.7 329.4 624.6 326.4C620.5 323.4 614.7 322 607 322H590.7V359.8L590.6 359.9Z" fill="#191007"/>
<path d="M710.2 397.7V400.4H662.4V319.6H710.1V322.3H665.6V358.1H703.1V360.7H665.6V397.7H710.3H710.2Z" fill="#191007"/>
<path d="M859.1 397.6V400.4H815.9V319.6H819.1V397.6H859.2H859.1Z" fill="#191007"/>
<path d="M962.9 397.7V400.4H915.1V319.6H962.8V322.3H918.3V358.1H955.8V360.7H918.3V397.7H963H962.9Z" fill="#191007"/>
<path d="M1026.4 328C1026.2 328.4 1025.8 328.6 1025.4 328.6C1025 328.6 1024.4 328.2 1023.6 327.5C1022.9 326.8 1021.8 325.9 1020.5 325C1019.2 324.1 1017.4 323.2 1015.3 322.5C1013.2 321.8 1010.6 321.4 1007.5 321.4C1004.4 321.4 1001.6 321.9 999.1 322.8C996.7 323.7 994.6 325 993 326.6C991.4 328.2 990.1 330.1 989.3 332.1C988.5 334.2 988 336.4 988 338.7C988 341 988.6 344.1 989.8 346.1C991 348.1 992.6 349.7 994.5 351.1C996.5 352.4 998.7 353.6 1001.1 354.5C1003.6 355.4 1006.1 356.3 1008.7 357.2C1011.3 358.1 1013.8 359 1016.3 360C1018.8 361 1021 362.2 1022.9 363.7C1024.9 365.2 1026.4 367 1027.6 369.2C1028.8 371.4 1029.4 374.1 1029.4 377.4C1029.4 380.7 1028.8 383.9 1027.7 386.8C1026.6 389.7 1024.9 392.3 1022.8 394.4C1020.6 396.6 1018 398.3 1014.9 399.5C1011.8 400.7 1008.2 401.4 1004.2 401.4C1000.2 401.4 999 401.2 996.8 400.7C994.6 400.2 992.6 399.5 990.7 398.6C988.8 397.7 987.1 396.6 985.6 395.3C984 394 982.6 392.5 981.1 390.9L981.8 389.8C982 389.6 982.2 389.5 982.3 389.4C982.4 389.4 982.6 389.3 982.9 389.3C983.2 389.3 983.5 389.5 984 390C984.5 390.5 985.1 391.1 985.9 391.8C986.7 392.5 987.6 393.3 988.7 394.1C989.8 394.9 991 395.7 992.5 396.4C994 397.1 995.7 397.7 997.6 398.2C999.5 398.7 1001.7 398.9 1004.2 398.9C1007.7 398.9 1010.8 398.4 1013.6 397.3C1016.4 396.2 1018.7 394.7 1020.6 392.8C1022.5 390.9 1023.9 388.7 1024.9 386.2C1025.9 383.7 1026.4 381 1026.4 378.1C1026.4 375.2 1025.8 372.5 1024.6 370.5C1023.4 368.5 1021.8 366.8 1019.9 365.5C1018 364.2 1015.8 363 1013.3 362.1C1010.8 361.2 1008.3 360.3 1005.7 359.5C1003.1 358.7 1000.6 357.8 998.1 356.8C995.6 355.8 993.4 354.6 991.5 353.1C989.6 351.6 988 349.7 986.8 347.5C985.6 345.3 985 342.5 985 339.1C985 335.7 985.5 333.9 986.5 331.5C987.5 329.1 988.9 327 990.8 325.1C992.7 323.2 995 321.8 997.8 320.6C1000.6 319.5 1003.8 318.9 1007.4 318.9C1011 318.9 1015.1 319.6 1018.2 320.9C1021.3 322.2 1024.2 324.2 1027 327L1026.3 328.3L1026.4 328Z" fill="#191007"/>
<path d="M1107 322.3H1077.4V400.3H1074.2V322.3H1044.4V319.5H1106.9V322.3H1107Z" fill="#191007"/>
<path d="M1243.7 322.3H1214.1V400.3H1210.9V322.3H1181.1V319.5H1243.6V322.3H1243.7Z" fill="#191007"/>
<path d="M1312.3 397.7V400.4H1264.5V319.6H1312.2V322.3H1267.7V358.1H1305.2V360.7H1267.7V397.7H1312.4H1312.3Z" fill="#191007"/>
<path d="M761.3 319.6H758.3L724.8 400.4H727.2C727.9 400.4 728.3 400.1 728.5 399.4L758.6 326.4C759.1 325.4 759.5 324.2 759.8 323C760.2 324.3 760.6 325.4 761 326.4L791.1 399.4C791.4 400.1 791.8 400.4 792.4 400.4H794.9L761.5 319.6H761.3Z" fill="#191007"/>
<path d="M1145.6 319.6H1142.6L1109.1 400.4H1111.5C1112.2 400.4 1112.6 400.1 1112.8 399.4L1142.9 326.4C1143.4 325.4 1143.8 324.2 1144.1 323C1144.5 324.3 1144.9 325.4 1145.3 326.4L1175.4 399.4C1175.7 400.1 1176.1 400.4 1176.7 400.4H1179.2L1145.8 319.6H1145.6Z" fill="#191007"/>
<path d="M245.9 0C110.3 0 0 110.3 0 245.9C0 381.5 110.4 491.8 246 491.8C352.5 491.1 428.5 421.7 464.1 357C471.4 343.7 494.2 298.5 480.1 275.9C469.1 258.2 444.8 265 416.8 272.8C382.3 282.4 339.3 294.4 311.4 269.7C296.6 256.6 292.4 239.5 288.3 222.9C284 205.5 279.1 185.9 260.2 177.1C227.6 161.9 179.1 190.1 108 265.7L126.1 282.6C209 194.4 240.1 195.1 249.7 199.5C257.5 203.1 260.2 212.5 264.2 228.8C268.7 247.2 274.4 270.1 294.9 288.3C332.9 322 385.2 307.4 423.3 296.8C435.3 293.4 450.4 289.2 457.2 289.5H459.4L459.7 291.8C460.8 301.5 454.6 328.1 432.7 361.1C411.8 392.7 351.8 466.4 245.8 467.1C123.8 467.1 24.6001 367.9 24.6001 246C24.6001 124.1 123.8 24.8999 245.7 24.8999C367.6 24.8999 366.8 51 408.6 96.5L427 80C380.5 29.2 314.5 0.199951 245.6 0.199951L245.9 0Z" fill="#191007"/>
<path d="M639.6 241.5C645 241.5 649.9 241.2 654.3 240.7C658.7 240.1 662.8 239.3 666.6 238.2C670.4 237.1 674 235.7 677.4 234.2C680.8 232.6 684.3 230.8 687.8 228.8V186.6H657.7C656.9 186.6 656.2 186.3 655.7 185.8C655.1 185.3 654.9 184.7 654.9 184V177.8H698.2V233.5C694.3 236.2 690.2 238.7 686 240.8C681.8 242.9 677.3 244.7 672.5 246.2C667.7 247.6 662.5 248.7 657 249.5C651.5 250.3 645.4 250.7 638.8 250.7C627.5 250.7 617.2 248.8 607.9 245C598.6 241.2 590.6 235.8 583.9 228.8C577.2 221.8 572 213.4 568.4 203.5C564.7 193.6 562.9 182.6 562.9 170.5C562.9 158.4 564.7 147.4 568.4 137.6C572.1 127.7 577.3 119.3 584.1 112.4C590.9 105.4 599.1 100 608.8 96.2C618.5 92.4 629.4 90.5 641.4 90.5C653.4 90.5 652.9 90.9 657.9 91.7C663 92.5 667.7 93.6999 672 95.2999C676.4 96.8999 680.4 98.8 684.2 101.2C688 103.5 691.6 106.2 695 109.2L692 114.1C691.3 115.2 690.4 115.8 689.2 115.8C688 115.8 687.9 115.7 687.3 115.4C686.2 115 684.6 113.9 682.5 112.3C680.4 110.7 677.6 109 674 107.2C670.4 105.4 665.9 103.8 660.6 102.4C655.2 101 648.7 100.3 641 100.3C633.3 100.3 621.6 101.9 613.4 105.2C605.2 108.4 598.2 113.1 592.4 119.1C586.6 125.2 582.1 132.5 579 141.2C575.9 149.9 574.3 159.7 574.3 170.5C574.3 181.3 575.9 191.5 579.1 200.3C582.3 209.1 586.7 216.5 592.4 222.6C598.1 228.7 605 233.4 613 236.6C621 239.8 629.8 241.5 639.5 241.5H639.6Z" fill="#191007"/>
<path d="M919.6 185.8V248.9H908.3V92.2998H948.7C967.1 92.2998 980.9 96.2998 990.3 104.4C999.6 112.4 1004.3 123.9 1004.3 138.8C1004.3 153.7 1003 152 1000.5 157.7C998 163.5 994.3 168.4 989.5 172.6C984.7 176.8 978.9 180 972 182.3C965.1 184.6 957.4 185.8 948.8 185.8H919.7H919.6ZM919.6 176.7H948.7C955.6 176.7 961.8 175.7 967.3 173.8C972.8 171.9 977.4 169.2 981.2 165.8C985 162.4 987.9 158.4 989.9 153.8C991.9 149.2 992.9 144.2 992.9 138.7C992.9 126.7 989.2 117.4 981.8 110.9C974.4 104.4 963.3 101.2 948.7 101.2H919.6V176.7Z" fill="#191007"/>
<path d="M1217.2 222.5C1217.9 222.5 1218.6 222.8 1219.1 223.3L1223.5 228.1C1220.2 231.6 1216.7 234.7 1212.9 237.5C1209.1 240.3 1204.9 242.6 1200.3 244.6C1195.8 246.6 1190.8 248.1 1185.4 249.1C1180 250.2 1174 250.7 1167.5 250.7C1156.7 250.7 1146.7 248.8 1137.7 245C1128.7 241.2 1120.9 235.8 1114.5 228.8C1108 221.8 1103 213.4 1099.4 203.5C1095.8 193.6 1094 182.6 1094 170.5C1094 158.4 1095.9 147.8 1099.6 138C1103.3 128.2 1108.6 119.8 1115.3 112.7C1122.1 105.7 1130.1 100.2 1139.5 96.2999C1148.9 92.3999 1159.3 90.5 1170.7 90.5C1182.1 90.5 1181.6 90.8999 1186.3 91.7999C1191 92.5999 1195.4 93.9 1199.5 95.5C1203.6 97.1 1207.5 99.0999 1211.1 101.4C1214.7 103.8 1218.3 106.5 1221.7 109.6L1218.3 114.6C1217.7 115.5 1216.8 115.9 1215.5 115.9C1214.2 115.9 1214 115.5 1213 114.7C1212 113.9 1210.7 113 1209.1 111.8C1207.5 110.7 1205.6 109.4 1203.3 108C1201.1 106.6 1198.4 105.4 1195.3 104.2C1192.2 103.1 1188.6 102.1 1184.6 101.3C1180.5 100.5 1175.9 100.1 1170.8 100.1C1161.3 100.1 1152.5 101.7 1144.6 105C1136.6 108.3 1129.8 113 1124 119.1C1118.2 125.2 1113.8 132.6 1110.5 141.2C1107.3 149.9 1105.7 159.6 1105.7 170.4C1105.7 181.2 1107.3 191.4 1110.5 200.1C1113.7 208.8 1118.1 216.2 1123.7 222.2C1129.3 228.2 1135.9 232.8 1143.6 236C1151.2 239.2 1159.5 240.8 1168.5 240.8C1177.5 240.8 1179.1 240.4 1183.5 239.7C1187.9 239 1191.9 237.9 1195.6 236.4C1199.3 234.9 1202.7 233.1 1205.9 231C1209.1 228.9 1212.2 226.4 1215.3 223.5C1215.7 223.2 1216 223 1216.3 222.8C1216.6 222.6 1217 222.5 1217.5 222.5H1217.2Z" fill="#191007"/>
<path d="M1440.8 185.8V248.9H1429.5V92.2998H1469.9C1488.3 92.2998 1502.1 96.2998 1511.5 104.4C1520.8 112.4 1525.5 123.9 1525.5 138.8C1525.5 153.7 1524.2 152 1521.7 157.7C1519.2 163.5 1515.5 168.4 1510.7 172.6C1505.9 176.8 1500.1 180 1493.2 182.3C1486.3 184.6 1478.6 185.8 1470 185.8H1440.9H1440.8ZM1440.8 176.7H1469.9C1476.8 176.7 1483 175.7 1488.5 173.8C1494 171.9 1498.6 169.2 1502.4 165.8C1506.2 162.4 1509.1 158.4 1511.1 153.8C1513.1 149.2 1514.1 144.2 1514.1 138.7C1514.1 126.7 1510.4 117.4 1503 110.9C1495.6 104.4 1484.5 101.2 1469.9 101.2H1440.8V176.7Z" fill="#191007"/>
<path d="M1585.2 248.9H1573.8V92.2998H1585.2V248.9Z" fill="#191007"/>
<path d="M1750.4 92.2998V101.9H1695.4V248.9H1684.1V101.9H1628.8V92.2998H1750.4Z" fill="#191007"/>
<path d="M1943 239.3H2017.3V248.9H1931.7V92.2998H1943V239.3Z" fill="#191007"/>
<path d="M804 92.2998H792.7L728.6 248.9H737.2C738.2 248.9 739.1 248.6 739.9 248C740.6 247.4 741.2 246.7 741.5 245.9L795.3 113C795.8 111.7 796.3 110.2 796.8 108.6C797.3 107 797.8 105.3 798.4 103.6C798.9 105.4 799.4 107.1 800 108.6C800.5 110.2 801 111.6 801.5 112.9L855.3 245.9C855.7 246.8 856.2 247.5 856.9 248.1C857.6 248.7 858.4 248.9 859.4 248.9H868.1L804 92.2998Z" fill="#191007"/>
<path d="M1325.1 92.2998H1313.8L1249.7 248.9H1258.3C1259.3 248.9 1260.2 248.6 1261 248C1261.7 247.4 1262.3 246.7 1262.6 245.9L1316.4 113C1316.9 111.7 1317.4 110.2 1317.9 108.6C1318.4 107 1318.9 105.3 1319.5 103.6C1320 105.4 1320.5 107.1 1321.1 108.6C1321.6 110.2 1322.1 111.6 1322.6 112.9L1376.4 245.9C1376.8 246.8 1377.3 247.5 1378 248.1C1378.7 248.7 1379.5 248.9 1380.5 248.9H1389.2L1325.1 92.2998Z" fill="#191007"/>
<path d="M1830.7 92.2998H1819.4L1755.3 248.9H1763.9C1764.9 248.9 1765.8 248.6 1766.6 248C1767.3 247.4 1767.9 246.7 1768.2 245.9L1822 113C1822.5 111.7 1823 110.2 1823.5 108.6C1824 107 1824.5 105.3 1825.1 103.6C1825.6 105.4 1826.1 107.1 1826.7 108.6C1827.2 110.2 1827.7 111.6 1828.2 112.9L1882 245.9C1882.4 246.8 1882.9 247.5 1883.6 248.1C1884.3 248.7 1885.1 248.9 1886.1 248.9H1894.8L1830.7 92.2998Z" fill="#191007"/>
</svg>
