<svg width="483" height="92" viewBox="0 0 483 92" fill="none" xmlns="http://www.w3.org/2000/svg">
<path d="M33.4375 72.6038L9.02662 72.61L8.77588 70.8075L11.6547 70.7637L11.7657 69.1994L13.9336 69.1304L13.924 59.4283L15.7522 59.1493V49.7293L17.3836 49.2623L17.4027 39.8047L18.7929 39.3815L18.7992 25.1621L20.8623 24.9458V20.0117L21.5511 18.7108V14.1685C21.5511 13.971 22.3922 13.8613 22.3922 14.0274L22.4175 18.4349C22.4175 18.7609 22.9285 19.5352 23.1539 19.8393L23.1793 28.0681L24.3949 28.5602L24.3822 42.6542L25.7724 43.0115V52.5538L27.4133 52.7136L27.4229 62.3092L28.9273 62.6477V69.1398L30.308 69.2245C30.6413 69.2464 30.673 69.9988 30.6952 70.6884L33.4089 70.8546C33.5264 71.1649 33.5327 72.0301 33.4407 72.6038H33.4375Z" fill="#E5AF00"/>
<path d="M68.6786 71.2136V69.4333L70.1028 69.2909C71.9543 69.101 73.3073 68.8162 74.1619 68.4364C75.0639 68.0091 75.6336 67.2732 75.871 66.2288C76.1558 65.1844 76.2982 63.6177 76.2982 61.5288V29.9107C76.2982 27.7744 76.1558 26.184 75.871 25.1395C75.6336 24.0951 75.0876 23.383 74.2331 23.0032C73.3785 22.6234 72.0255 22.3385 70.174 22.1486L68.7498 22.0062V20.2259L79.2891 20.4395H89.33C109.269 20.4395 119.239 28.5577 119.239 44.794C119.239 50.0637 118.147 54.6687 115.963 58.6091C113.779 62.5495 110.717 65.6116 106.777 67.7955C102.837 69.9318 98.2078 71 92.8906 71H79.2179L68.6786 71.2136ZM87.1224 68.8636H93.1755C99.3946 68.8636 104.142 66.846 107.418 62.8106C110.741 58.7753 112.403 52.9359 112.403 45.2925C112.403 37.6491 110.67 31.9521 107.204 28.2016C103.739 24.4511 98.4689 22.5759 91.3952 22.5759H82.4225V60.6031C82.4225 63.5465 82.7785 65.6591 83.4906 66.9409C84.2502 68.2227 85.4608 68.8636 87.1224 68.8636ZM144.913 71.7121C140.735 71.7121 137.435 70.5965 135.014 68.3652C132.64 66.1339 131.454 63.0717 131.454 59.1788V47.144C131.454 45.1975 131.335 43.7733 131.097 42.8713C130.908 41.9218 130.433 41.2571 129.673 40.8774C128.961 40.4976 127.845 40.2127 126.326 40.0228L125.187 39.8804V38.2425L133.946 38.4561L142.705 38.2425V39.8804L141.566 40.0228C140.046 40.2127 138.907 40.4976 138.147 40.8774C137.435 41.2571 136.961 41.9218 136.723 42.8713C136.533 43.7733 136.438 45.1975 136.438 47.144V59.1788C136.438 62.4546 137.293 65.0182 139.002 66.8697C140.711 68.6737 143.109 69.5758 146.194 69.5758C149.185 69.5758 151.464 68.6737 153.031 66.8697C154.645 65.0657 155.452 62.4308 155.452 58.9652V47.2152C155.452 45.2688 155.333 43.8445 155.096 42.9425C154.906 41.993 154.431 41.3284 153.672 40.9486C152.96 40.5688 151.844 40.2839 150.325 40.094L149.185 39.9516V38.3137L156.378 38.4561L163.57 38.3137V39.9516L162.431 40.094C160.912 40.2839 159.772 40.5688 159.013 40.9486C158.3 41.3284 157.826 41.993 157.588 42.9425C157.398 43.8445 157.303 45.2688 157.303 47.2152V58.9652C157.303 63.143 156.235 66.3237 154.099 68.5076C152.01 70.6439 148.948 71.7121 144.913 71.7121ZM165.394 71.2136V69.5758L166.534 69.4333C168.1 69.2434 169.24 68.9823 169.952 68.65C170.712 68.2702 171.186 67.6056 171.376 66.6561C171.614 65.7066 171.732 64.2823 171.732 62.3834V47.144C171.732 45.1975 171.614 43.7733 171.376 42.8713C171.186 41.9218 170.712 41.2571 169.952 40.8774C169.24 40.4976 168.124 40.2127 166.605 40.0228L165.466 39.8804V38.2425L174.225 38.4561H182.2C186.283 38.4561 189.44 39.0733 191.672 40.3077C193.903 41.542 195.019 43.3223 195.019 45.6486C195.019 47.69 194.188 49.4228 192.526 50.847C190.865 52.2713 188.609 53.1733 185.761 53.5531L185.547 53.197C189.25 53.3869 192.099 54.194 194.093 55.6182C196.087 57.0425 197.084 58.9889 197.084 61.4576C197.084 63.2142 196.609 64.8283 195.659 66.3C194.71 67.7243 193.404 68.8636 191.743 69.7182C190.129 70.5727 188.325 71 186.331 71H174.153L165.394 71.2136ZM181.132 69.2909H183.838C189.013 69.2909 191.6 66.7748 191.6 61.7424C191.6 59.1313 190.865 57.3036 189.393 56.2591C187.969 55.1672 185.452 54.6213 181.844 54.6213H176.076V52.9122H183.553C185.452 52.9122 186.924 52.3187 187.969 51.1319C189.013 49.945 189.535 48.3071 189.535 46.2182C189.535 43.9869 188.871 42.4203 187.541 41.5183C186.212 40.6162 183.957 40.1652 180.776 40.1652H176.503V64.1637C176.503 65.2556 176.67 66.2051 177.002 67.0121C177.382 67.7717 177.904 68.3414 178.569 68.7212C179.281 69.101 180.135 69.2909 181.132 69.2909ZM199.985 71.2136V69.7182L200.982 69.5045C201.931 69.2672 202.691 69.0061 203.261 68.7212C203.83 68.3889 204.305 67.8904 204.685 67.2258C205.112 66.5611 205.587 65.6354 206.109 64.4485L216.862 38.4561H219.212L229.182 62.597C230.226 65.0657 231.057 66.7273 231.674 67.5818C232.291 68.4364 233.099 68.9823 234.096 69.2197L236.232 69.7182V71.2136L229.182 71L220.85 71.2136V69.7182L223.556 69.2197C224.458 69.0298 225.004 68.6263 225.194 68.0091C225.431 67.3445 225.336 66.4899 224.909 65.4455L215.58 42.088H217.218L208.246 64.3061C207.486 66.2051 207.13 67.5344 207.177 68.2939C207.225 69.0061 207.723 69.4096 208.673 69.5045L210.524 69.7182V71.2136L205.183 71L199.985 71.2136ZM209.385 59.9622L210.168 58.1819H222.488L223.129 59.9622H209.385Z" fill="white"/>
<path d="M239.322 71.2136V68.8636L240.747 68.7212C242.361 68.5313 243.548 68.2465 244.307 67.8667C245.067 67.4869 245.565 66.8222 245.803 65.8727C246.04 64.8758 246.159 63.4278 246.159 61.5288V29.9107C246.159 27.9643 246.04 26.5163 245.803 25.5668C245.565 24.5698 245.043 23.8814 244.236 23.5016C243.477 23.0744 242.313 22.7895 240.747 22.6471L239.322 22.5047V20.2259L250.432 20.4395L261.541 20.2259V22.5047L260.116 22.6471C258.55 22.7895 257.363 23.0744 256.556 23.5016C255.796 23.8814 255.298 24.5698 255.06 25.5668C254.823 26.5163 254.704 27.9643 254.704 29.9107V61.5288C254.704 63.4278 254.823 64.8758 255.06 65.8727C255.298 66.8222 255.796 67.4869 256.556 67.8667C257.363 68.2465 258.55 68.5313 260.116 68.7212L261.541 68.8636V71.2136L250.432 71L239.322 71.2136ZM264.947 71.2136V69.2197L266.086 69.0773C267.416 68.8874 268.389 68.6263 269.006 68.2939C269.623 67.9141 270.027 67.2732 270.217 66.3712C270.407 65.4692 270.502 64.1399 270.502 62.3834V47.0728C270.502 45.2213 270.407 43.8683 270.217 43.0137C270.027 42.1117 269.6 41.4708 268.935 41.091C268.318 40.7112 267.368 40.4263 266.086 40.2364L264.876 40.094V38.1001L272.567 38.3137H278.477L289.942 62.9531L286.738 66.0152L299.983 38.3137H304.399L312.374 38.1001V40.094L310.523 40.2364C309.668 40.2839 309.004 40.4738 308.529 40.8061C308.102 41.091 307.793 41.5895 307.603 42.3016C307.461 43.0137 307.389 44.0582 307.389 45.4349V62.3121C307.389 64.1162 307.484 65.4692 307.674 66.3712C307.864 67.2732 308.268 67.9141 308.885 68.2939C309.502 68.6263 310.475 68.8636 311.805 69.0061L312.944 69.1485V71.1424L303.473 70.9288L294.002 71.1424V69.1485L295.497 69.0061C296.779 68.8636 297.728 68.65 298.346 68.3652C299.01 68.0328 299.437 67.4157 299.627 66.5136C299.817 65.5642 299.912 64.1637 299.912 62.3121L299.841 40.9486L301.336 41.1622L287.308 70.6439H285.599L271.499 40.8061L272.994 40.9486V62.3834C272.994 64.1399 273.089 65.4929 273.279 66.4424C273.516 67.3445 273.944 67.9854 274.561 68.3652C275.225 68.6975 276.175 68.9349 277.409 69.0773L278.905 69.2197V71.2136L271.783 71.0712L264.947 71.2136ZM336.297 71.7833C332.736 71.7833 329.508 71.0475 326.612 69.5758C323.764 68.0566 321.532 65.9914 319.918 63.3803C318.304 60.7692 317.497 57.8258 317.497 54.55C317.497 51.2268 318.304 48.2597 319.918 45.6486C321.58 43.0374 323.835 40.996 326.683 39.5243C329.579 38.0526 332.831 37.3168 336.439 37.3168C340.095 37.3168 343.323 38.0526 346.124 39.5243C348.973 40.996 351.204 43.0137 352.818 45.5773C354.432 48.141 355.239 51.0844 355.239 54.4076C355.239 57.7308 354.409 60.698 352.747 63.3091C351.133 65.9202 348.902 67.9854 346.053 69.5045C343.205 71.0237 339.953 71.7833 336.297 71.7833ZM336.511 69.1485C339.881 69.1485 342.492 67.8667 344.344 65.303C346.195 62.6919 347.121 59.0364 347.121 54.3364C347.121 49.6364 346.195 46.0758 344.344 43.6546C342.54 41.1859 339.905 39.9516 336.439 39.9516C332.974 39.9516 330.291 41.1859 328.392 43.6546C326.541 46.1233 325.615 49.6602 325.615 54.2652C325.615 58.9177 326.565 62.5733 328.464 65.2318C330.41 67.8429 333.092 69.1485 336.511 69.1485ZM334.374 33.9698L336.368 20.4395H343.845L335.87 33.9698H334.374ZM374.705 71.1424L363.667 45.3637C362.955 43.6071 362.267 42.3728 361.602 41.6607C360.938 40.9011 360.154 40.4501 359.252 40.3077L358.042 40.094V38.1001L367.014 38.3137L375.702 38.1001V40.094L373.637 40.3077C372.45 40.4026 371.667 40.8774 371.287 41.7319C370.955 42.5864 371.05 43.6546 371.572 44.9364L380.26 65.8727H378.836L387.666 45.5061C389.043 42.3728 388.212 40.6162 385.173 40.2364L383.607 40.094V38.1001L390.229 38.3137L395.784 38.1001V40.094L395.072 40.2364C393.98 40.4738 393.102 40.9723 392.437 41.7319C391.772 42.4915 391.037 43.8208 390.229 45.7198L379.263 71.1424H374.705ZM397.445 71.2136V69.2197L398.584 69.0773C399.913 68.8874 400.887 68.6263 401.504 68.2939C402.121 67.9616 402.524 67.3445 402.714 66.4424C402.904 65.5404 402.999 64.1874 402.999 62.3834V47.0728C402.999 45.1738 402.904 43.7733 402.714 42.8713C402.524 41.9693 402.121 41.3521 401.504 41.0198C400.887 40.64 399.937 40.3789 398.655 40.2364L397.516 40.094V38.1001L406.987 38.3137H426.286V41.447L426.713 47.0728H424.648C424.078 45.2213 423.461 43.8208 422.796 42.8713C422.179 41.9218 421.324 41.2809 420.233 40.9486C419.188 40.6162 417.716 40.4501 415.817 40.4501H410.476V64.0212C410.476 65.7778 410.833 67.0359 411.545 67.7955C412.257 68.5076 413.444 68.8636 415.105 68.8636H417.954C419.473 68.8636 420.707 68.6025 421.657 68.0803C422.654 67.5581 423.508 66.6561 424.22 65.3743C424.933 64.0924 425.573 62.3121 426.143 60.0334H428.208L427.781 66.1576L427.71 71H406.702L397.445 71.2136ZM418.595 61.3864C418.5 59.2026 418.144 57.6359 417.526 56.6864C416.909 55.7369 415.936 55.2622 414.607 55.2622H409.551V53.0546H414.82C415.96 53.0546 416.814 52.6511 417.384 51.844C417.954 50.9894 418.357 49.5889 418.595 47.6425H420.517L420.304 54.194L420.517 61.3864H418.595ZM432.287 71.2136V69.2197L433.427 69.0773C434.661 68.8874 435.587 68.65 436.204 68.3652C436.821 68.0328 437.225 67.4157 437.415 66.5136C437.652 65.6116 437.771 64.2349 437.771 62.3834V47.0728C437.771 45.0789 437.652 43.6309 437.415 42.7289C437.225 41.8268 436.845 41.2334 436.275 40.9486C435.706 40.6162 434.851 40.3789 433.712 40.2364L432.572 40.094V38.1001L441.474 38.3137L450.446 38.1001V40.094L449.307 40.2364C448.168 40.3789 447.289 40.6162 446.672 40.9486C446.102 41.2334 445.723 41.8268 445.533 42.7289C445.343 43.6309 445.248 45.0789 445.248 47.0728V62.3834C445.248 64.2823 445.343 65.6828 445.533 66.5849C445.77 67.4869 446.197 68.0803 446.815 68.3652C447.479 68.65 448.429 68.8874 449.663 69.0773L450.802 69.2197V71.2136L441.545 71L432.287 71.2136ZM468.719 71.7833C467.485 71.7833 466.298 71.6172 465.158 71.2848C464.019 71 462.666 70.5015 461.099 69.7894C460.387 69.4571 459.865 69.2434 459.533 69.1485C459.248 69.0535 458.987 69.0061 458.749 69.0061C458.322 69.0061 457.99 69.1722 457.752 69.5045C457.515 69.7894 457.325 70.3116 457.183 71.0712H455.26L455.402 65.8727L455.26 58.6803H457.254C457.966 61.9086 459.271 64.496 461.17 66.4424C463.069 68.3889 465.253 69.3621 467.722 69.3621C469.573 69.3621 471.045 68.8636 472.137 67.8667C473.276 66.8697 473.846 65.5879 473.846 64.0212C473.846 62.6919 473.371 61.5526 472.422 60.6031C471.52 59.6536 469.93 58.7041 467.651 57.7546L463.663 56.1167C461.147 55.0248 459.271 53.743 458.037 52.2713C456.85 50.7521 456.257 48.948 456.257 46.8592C456.257 44.0107 457.254 41.7082 459.248 39.9516C461.242 38.195 463.853 37.3168 467.081 37.3168C468.031 37.3168 468.933 37.4117 469.787 37.6016C470.642 37.7915 471.757 38.1238 473.134 38.5986C473.799 38.8359 474.297 39.0021 474.63 39.0971C474.962 39.192 475.247 39.2395 475.484 39.2395C475.864 39.2395 476.125 39.1208 476.267 38.8834C476.41 38.5986 476.505 38.1476 476.552 37.5304H478.546L478.404 42.1592L478.475 47.7849H476.552C475.935 45.2688 474.867 43.2986 473.348 41.8743C471.829 40.4026 470.024 39.6667 467.936 39.6667C466.369 39.6667 465.063 40.1178 464.019 41.0198C463.022 41.8743 462.523 42.99 462.523 44.3667C462.523 45.4587 462.927 46.4081 463.734 47.2152C464.541 48.0223 465.87 48.8294 467.722 49.6364L471.567 51.1319C474.368 52.2713 476.457 53.6955 477.834 55.4046C479.258 57.1137 479.97 59.1551 479.97 61.5288C479.97 63.5702 479.496 65.3743 478.546 66.9409C477.597 68.4601 476.267 69.647 474.558 70.5015C472.897 71.3561 470.95 71.7833 468.719 71.7833Z" fill="white"/>
</svg>
